<svg viewBox="0 0 800 343" version="1.1" xmlns="http://www.w3.org/2000/svg">
<path fill="#101820" opacity="1.00" d=" M 330.19 18.15 C 331.70 17.52 333.38 17.73 334.98 17.65 C 357.95 17.78 380.93 17.56 403.90 17.76 C 399.18 34.42 394.42 51.08 389.60 67.71 C 388.16 73.30 382.84 77.59 377.03 77.59 C 366.68 77.65 356.33 77.64 345.98 77.59 C 339.76 77.66 335.12 73.03 330.53 69.50 C 326.51 66.14 322.01 63.35 318.33 59.61 C 320.04 51.59 322.81 43.82 324.93 35.89 C 326.77 30.01 328.04 23.93 330.19 18.15 Z" />
<path fill="#101820" opacity="1.00" d=" M 414.60 132.54 C 425.79 94.26 436.43 55.81 447.74 17.56 C 471.41 17.67 495.08 17.48 518.74 17.66 C 510.60 48.09 501.16 78.17 492.98 108.59 C 511.32 108.61 529.67 108.58 548.02 108.60 C 552.15 108.52 556.16 110.06 559.35 112.64 C 568.34 119.65 577.31 126.69 586.35 133.63 C 588.95 135.69 591.75 137.92 592.80 141.20 C 594.04 144.50 593.17 148.06 592.23 151.31 C 577.33 202.83 562.64 254.41 547.79 305.95 C 544.49 317.45 532.94 325.63 521.02 325.22 C 467.18 325.15 413.33 325.36 359.49 325.12 C 377.59 260.85 396.33 196.76 414.60 132.54 M 476.95 163.89 C 466.83 199.39 456.43 234.83 446.56 270.40 C 456.70 270.62 466.85 270.41 477.00 270.53 C 479.94 270.49 483.27 270.68 485.63 268.59 C 488.41 266.22 488.92 262.38 489.96 259.09 C 497.96 231.02 506.02 202.97 514.07 174.91 C 514.89 171.95 515.98 169.05 516.40 166.01 C 516.62 163.61 514.37 161.62 512.03 161.79 C 502.01 161.60 491.98 161.82 481.96 161.69 C 480.06 161.75 477.15 161.21 476.95 163.89 Z" />
<path fill="#101820" opacity="1.00" d=" M 49.28 108.67 C 139.52 108.50 229.77 108.66 320.02 108.58 C 324.18 108.44 328.36 109.72 331.62 112.34 C 341.23 119.74 350.78 127.23 360.43 134.60 C 362.94 136.52 365.38 138.88 366.15 142.06 C 367.54 146.83 365.27 151.54 364.11 156.10 C 348.07 212.43 331.76 268.69 315.78 325.04 C 291.20 325.39 266.60 325.25 242.02 325.11 C 256.80 272.63 272.14 220.31 287.03 167.86 C 288.56 164.60 285.41 161.22 282.06 161.74 C 271.08 161.83 260.08 161.47 249.12 161.91 C 248.84 162.22 248.29 162.84 248.01 163.14 C 232.48 217.06 217.12 271.03 201.71 324.98 C 177.97 325.49 154.20 325.15 130.44 325.15 C 133.59 312.73 137.46 300.50 140.93 288.16 C 151.56 251.05 162.15 213.93 172.84 176.84 C 173.80 173.26 175.24 169.77 175.67 166.07 C 175.93 163.60 173.40 161.56 171.04 161.77 C 160.69 161.63 150.33 161.81 139.98 161.69 C 138.04 161.80 134.88 161.16 134.69 163.95 C 119.40 217.63 103.98 271.28 88.73 324.97 C 82.83 325.42 76.91 325.16 71.00 325.22 C 52.32 325.17 33.64 325.33 14.97 325.13 C 29.54 272.87 44.79 220.79 59.51 168.57 C 61.05 162.27 61.11 155.61 59.83 149.27 C 56.52 135.68 52.42 122.29 49.28 108.67 Z" />
<path fill="#101820" opacity="1.00" d=" M 683.46 111.49 C 686.85 109.23 690.96 108.41 695.00 108.57 C 724.74 108.74 754.50 108.38 784.24 108.75 C 771.16 125.11 757.32 140.84 744.03 157.02 C 742.62 158.57 741.44 160.45 739.61 161.52 C 729.74 161.96 719.84 161.30 709.98 161.77 C 704.99 162.13 701.13 166.28 700.14 171.01 C 685.52 222.42 670.60 273.74 655.97 325.15 C 632.24 325.24 608.50 325.31 584.77 325.11 C 601.20 266.62 618.23 208.28 634.90 149.85 C 636.38 144.18 639.87 139.04 644.87 135.90 C 657.72 127.76 670.61 119.65 683.46 111.49 Z" />
</svg>
